<svg width="10.500000" height="18.000000" viewBox="0 0 10.5 18" fill="none" xmlns="http://www.w3.org/2000/svg" xmlns:xlink="http://www.w3.org/1999/xlink">
	<desc>
			Created with Pixso.
	</desc>
	<defs/>
	<path id="Vector" d="M6 7L10.5 7L10 9L6 9L6 18L4 18L4 9L0 9L0 7L4 7L4 5.12C4 3.34 4.18 2.69 4.53 2.04C4.87 1.4 5.4 0.87 6.04 0.53C6.69 0.18 7.34 0 9.12 0C9.65 0 10.1 0.04 10.5 0.14L10.5 2L9.12 2C7.8 2 7.4 2.07 6.98 2.29C6.68 2.45 6.45 2.68 6.29 2.99C6.07 3.4 6 3.8 6 5.12L6 7Z" fill="#FFFFFF" fill-opacity="1.000000" fill-rule="nonzero"/>
</svg>
