<svg width="17.500000" height="17.500000" viewBox="0 0 17.5 17.5" fill="none" xmlns="http://www.w3.org/2000/svg" xmlns:xlink="http://www.w3.org/1999/xlink">
	<desc>
			Created with Pixso.
	</desc>
	<defs/>
	<path id="Vector" d="M8.5 6.04C9.41 5.11 10.61 4.5 12 4.5C13.45 4.5 14.85 5.07 15.88 6.11C16.92 7.14 17.5 8.54 17.5 10L17.5 17.5L15.5 17.5L15.5 10C15.5 9.07 15.13 8.18 14.47 7.52C13.81 6.86 12.92 6.5 12 6.5C11.07 6.5 10.18 6.86 9.52 7.52C8.86 8.18 8.5 9.07 8.5 10L8.5 17.5L6.5 17.5L6.5 5L8.5 5L8.5 6.04ZM1.5 3C1.1 3 0.72 2.84 0.43 2.56C0.15 2.27 0 1.89 0 1.5C0 1.1 0.15 0.72 0.43 0.43C0.72 0.15 1.1 0 1.5 0C1.89 0 2.27 0.15 2.56 0.43C2.84 0.72 3 1.1 3 1.5C3 1.89 2.84 2.27 2.56 2.56C2.27 2.84 1.89 3 1.5 3ZM0.5 5L2.5 5L2.5 17.5L0.5 17.5L0.5 5Z" fill="#FFFFFF" fill-opacity="1.000000" fill-rule="nonzero"/>
</svg>
